<svg
        xmlns="http://www.w3.org/2000/svg"
        xmlns:xlink="http://www.w3.org/1999/xlink"
        width="24px" height="18px">
    <path fill-rule="evenodd"  opacity="0.502" fill="rgb(125, 124, 124)"
          d="M19.624,14.237 C19.172,14.503 19.232,15.822 21.776,17.26 C21.776,17.26 18.44,18.438 15.761,15.551 C15.196,15.632 14.612,15.799 14.14,15.799 C11.898,15.799 10.302,15.169 9.6,14.252 C16.979,14.604 19.636,8.334 16.87,2.695 C20.23,3.446 23.21,6.255 23.21,9.276 C23.21,11.277 21.621,13.64 19.624,14.237 ZM9.114,13.504 C8.516,13.504 7.932,13.462 7.367,13.381 C5.84,16.267 1.571,15.407 1.571,15.407 C4.115,14.203 3.956,12.470 3.504,12.204 C1.507,11.31 0.61,9.245 0.61,7.244 C0.61,3.710 4.208,0.967 9.114,0.967 C14.19,0.967 16.788,3.710 16.788,7.244 C16.788,10.777 14.19,13.504 9.114,13.504 Z"/>
</svg>