<svg
        xmlns="http://www.w3.org/2000/svg"
        xmlns:xlink="http://www.w3.org/1999/xlink"
        width="22px" height="15px">
    <path fill-rule="evenodd"  opacity="0.502" fill="rgb(125, 124, 124)"
          d="M20.474,14.967 L2.368,14.967 C2.368,14.967 0.960,14.967 0.960,13.466 L0.960,3.231 L5.430,7.62 L2.475,13.404 L6.237,7.754 L9.169,10.268 C9.169,10.268 10.61,11.534 11.421,11.534 C11.421,11.534 12.562,11.722 13.735,10.315 L16.707,7.760 L20.505,13.424 L17.652,6.948 L21.975,3.231 L21.975,13.513 C21.975,13.513 21.834,14.967 20.474,14.967 ZM10.7,9.959 L0.993,2.466 C0.993,2.466 0.933,0.974 2.345,0.974 L20.544,0.974 C20.544,0.974 21.951,0.988 21.951,2.490 L12.992,9.959 C12.992,9.959 11.758,11.554 10.7,9.959 Z"/>
</svg>