<svg
        xmlns="http://www.w3.org/2000/svg"
        xmlns:xlink="http://www.w3.org/1999/xlink"
        width="15px" height="22px">
    <path fill-rule="evenodd"  opacity="0.502" fill="rgb(125, 124, 124)"
          d="M12.507,21.999 L2.538,21.999 C1.161,21.999 0.46,20.815 0.46,19.438 L0.46,3.462 C0.46,2.85 1.161,0.969 2.538,0.969 L12.507,0.969 C13.884,0.969 15.0,2.85 15.0,3.462 L15.0,19.507 C15.0,20.884 13.884,21.999 12.507,21.999 ZM7.522,20.338 C7.981,20.338 8.353,19.966 8.353,19.507 C8.353,19.48 7.981,18.676 7.522,18.676 C7.64,18.676 6.692,19.48 6.692,19.507 C6.692,19.966 7.64,20.338 7.522,20.338 ZM12.994,2.993 L1.957,2.993 L1.957,17.15 L12.994,17.15 L12.994,2.993 Z"/>
</svg>