<svg
        xmlns="http://www.w3.org/2000/svg"
        xmlns:xlink="http://www.w3.org/1999/xlink"
        width="16px" height="17px">
    <path fill-rule="evenodd"  fill="rgb(159, 159, 159)"
          d="M11.982,10.429 C12.45,10.476 12.109,10.522 12.166,10.579 L13.859,12.374 C14.506,13.21 14.506,14.70 13.859,14.717 C13.211,15.365 12.162,15.365 11.515,14.717 L9.823,12.923 C9.765,12.866 9.719,12.801 9.672,12.738 C7.471,13.942 4.656,13.615 2.792,11.751 C0.527,9.486 0.527,5.814 2.792,3.549 C5.57,1.284 8.729,1.284 10.994,3.549 C12.858,5.412 13.185,8.227 11.982,10.429 ZM4.356,5.113 C2.955,6.514 2.955,8.785 4.356,10.185 C5.756,11.586 8.27,11.586 9.428,10.185 C10.828,8.785 10.828,6.514 9.428,5.113 C8.27,3.713 5.756,3.713 4.356,5.113 Z"/>
</svg>