<svg
        xmlns="http://www.w3.org/2000/svg"
        xmlns:xlink="http://www.w3.org/1999/xlink"
        width="32px" height="31px">
    <path fill-rule="evenodd"  fill="rgb(187, 187, 187)"
          d="M30.745,7.223 L22.581,12.334 C22.581,12.334 18.929,14.865 21.545,17.553 C21.545,17.553 24.114,18.881 21.899,20.888 C21.899,20.888 19.865,22.867 19.825,22.907 L8.163,11.326 C8.219,11.270 10.55,9.47 10.55,9.47 C10.55,9.47 11.636,6.839 14.168,10.371 C17.705,13.241 19.245,9.762 19.245,9.762 L24.875,1.623 C26.182,0.266 31.651,0.756 31.651,0.756 C31.651,0.756 32.686,5.116 30.745,7.223 ZM28.762,2.584 C28.184,2.584 27.715,3.53 27.715,3.630 C27.715,4.208 28.184,4.677 28.762,4.677 C29.340,4.677 29.809,4.208 29.809,3.630 C29.809,3.53 29.340,2.584 28.762,2.584 ZM11.682,30.448 L11.265,29.865 L15.932,23.948 L10.765,29.448 L10.349,29.115 L14.15,24.865 L9.765,28.698 L9.265,28.198 C9.265,28.198 12.447,24.747 13.864,23.355 L14.515,22.782 C14.450,22.798 14.207,23.18 13.864,23.355 L8.932,27.698 L8.682,27.281 L11.349,24.198 L8.265,26.948 L7.932,26.448 L10.599,22.698 L7.515,26.198 L8.432,24.198 L7.99,25.698 L6.682,25.282 L11.182,19.448 L6.344,24.975 L6.99,24.615 L8.515,20.781 L5.599,24.281 L5.265,24.31 L8.599,19.448 L4.849,23.615 L6.932,20.615 L4.432,23.365 L4.99,22.865 L7.932,16.948 L3.765,22.532 L3.349,22.32 L4.515,20.281 L2.932,21.615 L2.515,21.198 L5.265,18.532 L1.932,20.865 L6.182,15.865 L1.765,20.615 L1.182,19.948 L4.349,16.698 L0.682,19.698 L0.162,18.815 L7.379,12.329 L18.951,23.401 L11.682,30.448 Z"/>
</svg>