<svg
        xmlns="http://www.w3.org/2000/svg"
        xmlns:xlink="http://www.w3.org/1999/xlink"
        width="29px" height="22px">
    <path fill-rule="evenodd"  fill="rgb(187, 187, 187)"
          d="M26.700,21.25 L2.478,21.25 C1.107,21.25 0.3,19.914 0.3,18.544 L0.3,4.345 C0.3,2.975 1.670,1.926 3.41,1.926 L5.5,1.907 L5.76,1.53 C5.76,0.505 5.604,0.61 6.152,0.61 L10.995,0.61 C11.543,0.61 11.988,0.505 11.988,1.53 L11.974,1.926 C18.118,1.926 26.700,1.926 26.700,1.926 C28.71,1.926 28.932,3.37 28.932,4.407 L28.932,18.544 C28.932,19.914 28.71,21.25 26.700,21.25 ZM3.0,3.0 C2.171,3.0 1.0,3.672 1.0,4.500 L1.0,18.500 C1.0,19.454 3.0,20.0 3.0,20.0 L3.0,3.0 ZM10.816,3.882 C10.139,3.882 9.590,4.431 9.590,5.107 C9.590,5.784 10.139,6.333 10.816,6.333 C11.493,6.333 12.42,5.784 12.42,5.107 C12.42,4.431 11.493,3.882 10.816,3.882 ZM17.459,8.16 C14.420,8.16 11.956,10.479 11.956,13.519 C11.956,16.558 14.420,19.22 17.459,19.22 C20.498,19.22 22.963,16.558 22.963,13.519 C22.963,10.479 20.498,8.16 17.459,8.16 ZM26.930,4.951 C26.930,4.403 26.485,3.958 25.937,3.958 L21.414,3.958 C20.866,3.958 20.918,3.906 20.918,4.455 L20.918,6.23 C20.918,6.571 21.362,7.16 21.911,7.16 L26.433,7.16 C26.982,7.16 26.930,7.68 26.930,6.519 L26.930,4.951 ZM17.495,16.924 C15.549,16.924 13.971,15.347 13.971,13.401 C13.971,11.455 15.549,9.877 17.495,9.877 C19.441,9.877 21.18,11.455 21.18,13.401 C21.18,15.347 19.441,16.924 17.495,16.924 Z"/>
</svg>