<svg
        xmlns="http://www.w3.org/2000/svg"
        xmlns:xlink="http://www.w3.org/1999/xlink"
        width="23px" height="26px">
    <path fill-rule="evenodd"  fill="rgb(187, 187, 187)"
          d="M21.980,25.953 C21.980,25.953 21.968,25.21 21.62,24.959 C20.937,24.896 20.62,25.21 20.0,25.990 C20.0,25.990 7.512,25.990 3.968,25.990 C3.978,24.990 3.31,25.21 3.31,25.21 C1.989,25.21 2.218,26.121 1.939,25.986 C0.980,25.523 0.982,24.88 0.982,24.88 L0.982,2.917 C0.982,1.258 2.357,1.12 2.830,0.976 C2.346,1.46 1.968,1.445 1.968,1.948 C1.968,2.500 2.416,2.948 2.968,2.948 L3.0,2.948 C3.552,2.948 4.0,2.500 4.0,1.948 C4.0,1.428 3.599,1.15 3.92,0.966 L21.0,1.31 L20.968,1.31 C20.416,1.31 19.968,1.479 19.968,2.32 C19.968,2.584 20.416,3.31 20.968,3.31 L21.0,3.31 C21.552,3.31 22.0,2.584 22.0,2.32 C22.0,1.479 21.552,1.31 21.0,1.31 C23.0,1.31 23.0,3.63 23.0,3.63 L23.0,24.84 C23.0,25.33 21.980,25.953 21.980,25.953 ZM2.968,12.948 C2.416,12.948 1.968,13.396 1.968,13.948 C1.968,14.500 2.416,14.948 2.968,14.948 C3.521,14.948 3.968,14.500 3.968,13.948 C3.968,13.396 3.521,12.948 2.968,12.948 ZM3.968,10.964 L3.968,10.932 C3.968,10.389 3.528,9.979 2.984,9.979 C2.440,9.979 2.0,10.389 2.0,10.932 L2.0,10.964 C2.0,11.507 2.440,11.979 2.984,11.979 C3.528,11.979 3.968,11.507 3.968,10.964 ZM3.968,4.933 C3.968,4.388 3.528,3.948 2.984,3.948 C2.440,3.948 2.0,4.388 2.0,4.933 L2.0,4.995 C2.0,5.539 2.440,5.979 2.984,5.979 C3.528,5.979 3.968,5.539 3.968,4.995 L3.968,4.933 ZM4.0,7.933 C4.0,7.389 3.559,6.979 3.15,6.979 C2.472,6.979 2.31,7.389 2.31,7.933 L2.31,7.995 C2.31,8.539 2.472,8.979 3.15,8.979 C3.559,8.979 4.0,8.539 4.0,7.995 L4.0,7.933 ZM4.0,16.948 C4.0,16.396 3.552,15.979 3.0,15.979 L2.968,15.979 C2.416,15.979 1.968,16.396 1.968,16.948 L1.968,16.979 C1.968,17.532 2.416,17.980 2.968,17.980 L3.0,17.980 C3.552,17.980 4.0,17.532 4.0,16.979 L4.0,16.948 ZM3.15,18.979 L2.953,18.979 C2.409,18.979 1.968,19.420 1.968,19.964 C1.968,20.507 2.409,20.979 2.953,20.979 L3.15,20.979 C3.559,20.979 4.0,20.507 4.0,19.964 C4.0,19.420 3.559,18.979 3.15,18.979 ZM4.0,22.979 C4.0,22.427 3.552,21.979 3.0,21.979 C2.447,21.979 2.0,22.427 2.0,22.979 L2.0,23.11 C2.0,23.563 2.447,23.979 3.0,23.979 C3.552,23.979 4.0,23.563 4.0,23.11 L4.0,22.979 ZM18.968,3.979 C18.968,3.427 18.520,2.979 17.968,2.979 L6.0,2.979 C5.447,2.979 5.0,3.427 5.0,3.979 L5.0,12.0 C5.0,12.553 5.447,13.0 6.0,13.0 L17.968,13.0 C18.520,13.0 18.968,12.553 18.968,12.0 L18.968,3.979 ZM19.0,14.969 C19.0,14.416 18.552,14.0 18.0,14.0 L5.968,14.0 C5.416,14.0 5.0,14.416 5.0,14.969 L5.0,23.52 C5.0,23.605 5.416,23.990 5.968,23.990 L18.0,23.990 C18.552,23.990 19.0,23.605 19.0,23.52 L19.0,14.969 ZM20.968,12.948 C20.416,12.948 19.968,13.396 19.968,13.948 C19.968,14.500 20.416,14.948 20.968,14.948 C21.521,14.948 21.968,14.500 21.968,13.948 C21.968,13.396 21.521,12.948 20.968,12.948 ZM21.968,10.964 L21.968,10.932 C21.968,10.389 21.528,9.979 20.984,9.979 C20.440,9.979 20.0,10.389 20.0,10.932 L20.0,10.964 C20.0,11.507 20.440,11.979 20.984,11.979 C21.528,11.979 21.968,11.507 21.968,10.964 ZM21.968,4.933 C21.968,4.388 21.528,3.948 20.984,3.948 C20.440,3.948 20.0,4.388 20.0,4.933 L20.0,4.995 C20.0,5.539 20.440,5.979 20.984,5.979 C21.528,5.979 21.968,5.539 21.968,4.995 L21.968,4.933 ZM22.0,7.933 C22.0,7.389 21.559,6.979 21.15,6.979 C20.472,6.979 20.31,7.389 20.31,7.933 L20.31,7.995 C20.31,8.539 20.472,8.979 21.15,8.979 C21.559,8.979 22.0,8.539 22.0,7.995 L22.0,7.933 ZM22.0,16.948 C22.0,16.396 21.552,15.979 21.0,15.979 L20.968,15.979 C20.416,15.979 19.968,16.396 19.968,16.948 L19.968,16.979 C19.968,17.532 20.416,17.980 20.968,17.980 L21.0,17.980 C21.552,17.980 22.0,17.532 22.0,16.979 L22.0,16.948 ZM21.15,18.979 L20.953,18.979 C20.409,18.979 19.968,19.420 19.968,19.964 C19.968,20.507 20.409,20.979 20.953,20.979 L21.15,20.979 C21.559,20.979 22.0,20.507 22.0,19.964 C22.0,19.420 21.559,18.979 21.15,18.979 ZM22.0,22.979 C22.0,22.427 21.552,21.979 21.0,21.979 C20.447,21.979 20.0,22.427 20.0,22.979 L20.0,23.11 C20.0,23.563 20.447,23.979 21.0,23.979 C21.552,23.979 22.0,23.563 22.0,23.11 L22.0,22.979 ZM2.830,0.976 C2.877,0.969 2.919,0.948 2.968,0.948 L3.0,0.948 C3.32,0.948 3.60,0.963 3.92,0.966 L3.0,0.966 C3.0,0.966 2.927,0.968 2.830,0.976 Z"/>
</svg>