<svg
        xmlns="http://www.w3.org/2000/svg"
        xmlns:xlink="http://www.w3.org/1999/xlink"
        width="33px" height="21px">
    <path fill-rule="evenodd"  fill="rgb(250, 108, 101)"
          d="M31.83,21.0 L2.833,21.0 C0.947,21.0 1.0,19.0 1.0,19.0 L1.90,16.998 L4.0,17.0 L4.0,3.0 C4.0,1.0 5.900,0.979 5.900,0.979 L28.157,1.66 C29.907,1.66 30.0,2.917 30.0,2.917 L30.0,16.917 L32.916,16.917 L32.916,19.0 C32.916,19.0 32.885,21.0 31.83,21.0 ZM14.0,20.0 L21.0,20.0 C21.552,20.0 22.0,19.739 22.0,19.417 C22.0,19.95 21.552,18.833 21.0,18.833 L14.0,18.833 C13.447,18.833 13.0,19.95 13.0,19.417 C13.0,19.739 13.447,20.0 14.0,20.0 ZM28.0,3.0 L6.0,3.0 L6.0,16.0 L28.0,16.0 L28.0,3.0 ZM30.500,19.0 L28.500,19.0 C28.223,19.0 28.0,19.224 28.0,19.500 C28.0,19.776 28.223,20.0 28.500,20.0 L30.500,20.0 C30.776,20.0 31.0,19.776 31.0,19.500 C31.0,19.224 30.776,19.0 30.500,19.0 Z"/>
</svg>