<svg
        xmlns="http://www.w3.org/2000/svg"
        xmlns:xlink="http://www.w3.org/1999/xlink"
        width="15px" height="10px">
    <path fill-rule="evenodd"  fill="rgb(136, 136, 136)"
          d="M14.817,2.987 L14.171,4.96 L10.687,2.467 C10.687,2.467 10.940,2.126 11.103,1.761 C11.180,1.590 11.185,1.727 11.80,1.645 C10.131,0.908 7.871,0.911 7.871,0.911 L7.128,0.911 C5.578,0.911 3.935,1.546 3.935,1.546 C3.858,1.589 3.779,1.548 3.891,1.735 C3.995,1.966 4.312,2.467 4.312,2.467 L0.786,4.96 L0.182,2.987 C0.182,2.987 0.480,1.971 0.789,1.367 L1.820,0.862 C1.820,0.862 3.951,0.7 7.128,0.7 L7.747,0.7 C11.776,0.7 13.179,0.862 13.179,0.862 L14.210,1.367 C15.480,1.971 14.817,2.987 14.817,2.987 ZM2.76,7.530 C2.58,7.813 3.285,4.583 3.285,4.583 C3.688,3.867 4.479,3.429 5.281,3.162 L5.281,2.690 C5.281,2.690 5.237,1.857 6.244,1.857 L8.724,1.857 C8.724,1.857 9.731,1.843 9.731,2.761 L9.701,3.140 C10.369,3.407 11.82,3.852 11.632,4.593 L12.923,7.606 L12.923,9.84 C12.923,9.950 11.890,9.988 11.890,9.988 L3.68,9.988 C1.993,9.988 2.76,9.84 2.76,9.84 L2.76,7.530 Z"/>
</svg>